<?xml version="1.0" encoding="utf-8"?>
<!-- Generator: Adobe Illustrator 22.0.1, SVG Export Plug-In . SVG Version: 6.00 Build 0)  -->
<svg version="1.1" id="Layer_1" xmlns="http://www.w3.org/2000/svg" xmlns:xlink="http://www.w3.org/1999/xlink" x="0px" y="0px"
	 viewBox="0 0 100.3 114.2" style="enable-background:new 0 0 100.3 114.2;" xml:space="preserve">
<path d="M22.8,61.5V26.8h17.1v35.8c0,5.3,3.5,10.8,10.4,10.8c6.8,0,10.3-5.5,10.3-10.8V26.8h17.1v34.6c0,13.8-8.7,27.5-27.4,27.5
	C31.6,88.9,22.8,75.3,22.8,61.5z"/>
<path d="M94.6,5.8h-8.4l-5.6,1.5v2H62.3V7.2L56.7,5h-4.5l-0.9-0.5c0-0.1,0.1-0.2,0.1-0.3c0-0.4-0.3-0.7-0.6-0.9V0H50v3.3
	c-0.3,0.1-0.6,0.5-0.6,0.9c0,0.1,0,0.2,0.1,0.3l-1,0.5h-4.8l-5.3,2.2v2H20v-2l-5.6-1.5H6L0.5,7.3v8l0,0v49.4
	c0,27.2,22.2,49.4,49.4,49.4h0.9c27.2,0,49.4-22.2,49.4-49.4V10.3h0v-3L94.6,5.8z M93,64.7C93,88,74.1,107,50.8,107h-0.9
	C26.5,107,7.6,88,7.6,64.7V16.1H93V64.7z"/>
<g>
	<path d="M26.5,84l3.3,3.3l-0.9,0.8L27.7,87l-3.1,3.1l-0.9-0.9l3.1-3.1l-1.2-1.2L26.5,84z"/>
	<path d="M33,89.6c1.4,0.9,1.9,2.6,0.9,4.1c-0.9,1.4-2.7,1.7-4.1,0.8c-1.4-0.9-1.9-2.6-0.9-4.1C29.8,89,31.5,88.6,33,89.6z
		 M30.5,93.4c0.9,0.6,1.8,0.3,2.3-0.5c0.6-0.9,0.3-1.8-0.4-2.3c-0.8-0.5-1.7-0.3-2.3,0.5C29.5,91.9,29.7,92.9,30.5,93.4z"/>
	<path d="M36.6,91.8l1.2,0.4l0.9,2.8l2.3-1.7l1.1,0.4L40.4,99l-1.2-0.4l1.1-3.4l-2.2,1.6L38,96.7l-0.8-2.5l-1.1,3.4l-1.2-0.4
		L36.6,91.8z"/>
	<path d="M43.7,95.5c0.1-0.9,0.9-1.5,2-1.4c0.7,0.1,1.3,0.4,1.6,0.8l-0.8,0.9c-0.2-0.3-0.4-0.4-0.8-0.5c-0.3,0-0.6,0.1-0.6,0.3
		c-0.1,0.9,2.2,1,2,2.8c-0.1,1-1,1.5-2.1,1.4c-0.7-0.1-1.6-0.5-1.8-1.2l0.8-0.8c0.3,0.4,0.7,0.7,1.1,0.7c0.3,0,0.5-0.1,0.6-0.4
		C45.8,97.5,43.5,97.3,43.7,95.5z"/>
	<path d="M49.3,94.5l1.3,0l0.1,2.4l1.8-2.5l1.5,0l-2,2.6l2.3,3l-1.6,0l-2-2.6l0.1,2.7l-1.3,0L49.3,94.5z"/>
	<path d="M55.6,96.7l2.1-0.3l0.2,1.1l-2.1,0.3L55.6,96.7z"/>
	<path d="M59.9,93.3l0.8-0.2l1.5,5.4l-1.2,0.3L60,95l-0.4,0.5l-0.9-0.8L59.9,93.3z"/>
	<path d="M64.2,96.2c-0.3-0.7-0.2-1.3,0.2-1.6l0,0c-0.4,0-0.9-0.3-1.2-0.9c-0.4-0.8,0.1-1.7,1.1-2.1c0.9-0.4,2-0.3,2.3,0.5
		c0.2,0.5,0.2,1.1-0.2,1.5l0,0c0.5-0.1,1.1,0.1,1.4,0.8c0.4,1-0.1,1.9-1.1,2.3C65.6,97.3,64.6,97.1,64.2,96.2z M65.2,93.5
		c0.3-0.2,0.4-0.5,0.3-0.7c-0.1-0.3-0.4-0.4-0.8-0.2c-0.4,0.2-0.4,0.5-0.3,0.7C64.5,93.6,64.7,93.7,65.2,93.5L65.2,93.5z M65.6,94.6
		c-0.3,0.2-0.6,0.5-0.4,0.8c0.1,0.3,0.4,0.4,0.9,0.2c0.5-0.3,0.6-0.6,0.4-0.8C66.4,94.5,66,94.4,65.6,94.6L65.6,94.6z"/>
	<path d="M67,90.2l3-2.2l0.5,0.7l1.3,5l-1.1,0.8l-1.1-4.6l-1.8,1.3L67,90.2z"/>
	<path d="M73.9,90.1c-0.5-0.5-0.6-1.1-0.4-1.6l0,0c-0.4,0.1-1,0.1-1.5-0.4c-0.6-0.6-0.5-1.6,0.2-2.4c0.7-0.8,1.7-0.9,2.4-0.3
		c0.4,0.4,0.6,1,0.4,1.5l0,0c0.4-0.3,1.1-0.3,1.6,0.2c0.8,0.7,0.6,1.8-0.2,2.6C75.7,90.6,74.6,90.8,73.9,90.1z M73.9,87.2
		c0.3-0.3,0.2-0.6,0-0.8c-0.2-0.2-0.5-0.2-0.8,0.1c-0.3,0.3-0.2,0.6-0.1,0.8C73.3,87.5,73.6,87.6,73.9,87.2L73.9,87.2z M74.7,88.1
		c-0.3,0.3-0.4,0.6-0.1,0.9c0.2,0.2,0.6,0.3,0.9-0.1c0.4-0.4,0.3-0.7,0.1-0.9C75.4,87.7,75.1,87.8,74.7,88.1L74.7,88.1z"/>
</g>
</svg>
